<svg width="36" height="36" viewBox="0 0 36 36" fill="none" xmlns="http://www.w3.org/2000/svg">
<path d="M32.1516 8.86085C34.0638 10.2095 35.0318 12.012 35.5104 14.1041C37.9033 24.5624 31.3191 34.2902 20.62 35.7814C13.5769 36.7626 7.75757 34.4328 3.47664 28.6579C1.25642 25.6624 -0.0394409 22.2736 -0.000106148 18.6232C0.067637 12.4918 2.2529 7.28746 7.58275 3.61333C8.92669 2.68831 10.3493 2.00536 11.7457 1.22514C12.4712 0.818829 13.2754 1.20353 13.9768 0.885828C15.2006 0.334709 16.5314 0.293645 17.8185 0.0537456C18.9461 -0.155896 19.947 0.26771 21.0855 0.777765C20.4233 0.987407 19.9054 0.555156 19.3154 0.803701C20.1436 1.03712 20.8997 1.24892 21.6558 1.46288C21.6515 1.52988 21.6493 1.59904 21.6449 1.66604C20.8779 1.59472 20.1109 1.5234 19.3438 1.45208C20.2573 1.61849 20.9937 2.21716 21.8744 2.38142C22.3704 2.47219 22.8162 2.7056 23.38 2.23229C23.9023 1.79139 24.5295 2.45706 24.8638 2.80286C25.6352 3.60252 26.6142 4.03477 27.5101 4.61399C27.7221 4.75015 27.9232 4.90576 27.9778 5.27101C27.4271 5.26669 27.0534 4.95547 26.7038 4.69828C25.0736 3.49878 23.1855 2.96063 21.2297 2.7056C17.7311 2.25174 14.3352 2.55648 11.2147 4.40219C10.0324 5.10027 8.82398 5.85671 8.01543 6.90492C5.39749 10.3046 3.52035 13.996 3.64272 18.4763C3.84377 25.911 10.3427 32.3537 17.8535 32.4596C23.7122 32.5417 28.1854 30.0563 30.976 25.0638C32.6827 22.0099 33.618 18.66 32.6739 14.9967C32.3155 13.5983 32.1844 12.1265 31.6709 10.7455C31.4174 10.056 31.9244 9.53733 32.1516 8.86085Z" fill="#A6643D"/>
<path d="M33.3499 3.64391C34.6371 3.4883 34.7857 2.05538 35.7013 1.48914C36.0203 1.72255 35.8521 1.9041 35.7341 2.07484C34.3705 4.02429 32.7774 5.85919 31.8028 8.02044C30.1048 11.7853 27.0214 14.4523 24.4865 17.5516C22.9328 19.4513 21.331 21.3122 19.8057 23.24C19.0605 24.1823 18.193 25.0641 17.3276 25.9156C16.5759 26.6548 15.6471 26.5445 14.8364 25.9286C13.5384 24.9409 12.2359 23.9554 11.0078 22.8855C9.23557 21.3402 7.53763 19.7128 5.79597 18.1351C5.11417 17.517 5.05298 16.8362 5.56215 16.1295C6.11939 15.3579 6.88423 15.2542 7.66874 15.7642C10.0988 17.3441 12.5004 18.9629 14.4562 21.1393C15.8132 22.65 15.8001 22.6003 16.9692 20.9923C20.387 16.2937 23.9205 11.6859 27.9196 7.44339C28.7762 6.53566 29.6721 5.65819 30.3933 4.61215C30.8019 4.01996 31.4619 3.6331 31.8028 2.89827C32.0934 2.27583 32.8692 2.60434 33.3674 2.77724C33.929 2.97824 33.0571 3.33917 33.3499 3.64391Z" fill="#A6643D"/>
</svg>
